<mxfile host="app.diagrams.net" modified="2023-04-27T17:54:28.848Z" agent="Mozilla/5.0 (Windows NT 10.0; Win64; x64) AppleWebKit/537.36 (KHTML, like Gecko) Chrome/112.0.0.0 Safari/537.36" etag="m27Y3ePknZL7LbSvj1po" version="21.1.2" type="device">
  <diagram name="Página-1" id="w_E5f0nmmE6ZTcMcbywt">
    <mxGraphModel dx="600" dy="332" grid="1" gridSize="10" guides="1" tooltips="1" connect="1" arrows="1" fold="1" page="1" pageScale="1" pageWidth="827" pageHeight="1169" math="0" shadow="0">
      <root>
        <mxCell id="0" />
        <mxCell id="1" parent="0" />
        <mxCell id="gpJj0CxwgP7CzuSR-CXS-1" value="&lt;div style=&quot;text-align: left;&quot;&gt;&lt;span style=&quot;background-color: initial;&quot;&gt;&lt;u style=&quot;&quot;&gt;&lt;i&gt;&lt;font style=&quot;font-size: 14px;&quot;&gt;Modificadores de acesso:&lt;/font&gt;&lt;/i&gt;&lt;/u&gt;&lt;/span&gt;&lt;/div&gt;&lt;div style=&quot;text-align: left;&quot;&gt;&lt;span style=&quot;background-color: initial;&quot;&gt;+ --&amp;gt; público&lt;/span&gt;&lt;span style=&quot;background-color: initial;&quot;&gt;:&lt;/span&gt;&lt;span style=&quot;background-color: initial; font-weight: normal;&quot;&gt; uma propriedade ou método que pode ser acessada de qualquer parte do código.&lt;/span&gt;&lt;/div&gt;&lt;div style=&quot;text-align: left;&quot;&gt;&lt;span style=&quot;background-color: initial;&quot;&gt;- --&amp;gt; privado: &lt;/span&gt;&lt;span style=&quot;background-color: initial; font-weight: normal;&quot;&gt;uma propriedade ou método pode ser acessado somente dentro da classe.&lt;/span&gt;&lt;/div&gt;&lt;div style=&quot;text-align: left;&quot;&gt;&lt;span style=&quot;background-color: initial;&quot;&gt;# --&amp;gt; protegido:&lt;/span&gt;&lt;span style=&quot;background-color: initial; font-weight: normal;&quot;&gt; uma propriedade ou método pode ser acessado a partir de uma classe que herda de outra classe.&lt;/span&gt;&lt;/div&gt;&lt;span id=&quot;docs-internal-guid-d9924a26-7fff-dc47-6b06-bd6e0aea810e&quot; style=&quot;font-weight:normal;&quot;&gt;&lt;/span&gt;" style="text;align=center;fontStyle=1;verticalAlign=middle;spacingLeft=3;spacingRight=3;strokeColor=none;rotatable=0;points=[[0,0.5],[1,0.5]];portConstraint=eastwest;html=1;" vertex="1" parent="1">
          <mxGeometry x="40" y="10" width="620" height="90" as="geometry" />
        </mxCell>
        <mxCell id="gpJj0CxwgP7CzuSR-CXS-2" value="&lt;div style=&quot;&quot;&gt;&lt;span style=&quot;background-color: initial;&quot;&gt;&lt;u style=&quot;&quot;&gt;&lt;i&gt;&lt;font style=&quot;font-size: 14px;&quot;&gt;Ligações:&lt;/font&gt;&lt;/i&gt;&lt;/u&gt;&lt;/span&gt;&lt;/div&gt;&lt;div style=&quot;&quot;&gt;Herança: &lt;span style=&quot;font-weight: normal;&quot;&gt;quando uma classe concreta(filha) herda métodos e atributos de uma superclasse(pai).&lt;/span&gt;&lt;/div&gt;&lt;div style=&quot;&quot;&gt;Composição:&lt;span style=&quot;font-weight: normal;&quot;&gt;&amp;nbsp;quando determinada classe depende da existência de outra para existir.&lt;/span&gt;&lt;/div&gt;&lt;div style=&quot;&quot;&gt;Agregação: &lt;span style=&quot;font-weight: 400;&quot;&gt;quando determinada classe pode existir por conta própria mas ainda assim, pode ligar-se à outra classe.&lt;/span&gt;&lt;/div&gt;&lt;div style=&quot;&quot;&gt;Associação:&lt;span style=&quot;font-weight: normal;&quot;&gt;&amp;nbsp;quando uma classe nos dá a opção de criarmos objetos que podem estar associados à um grupo ou&lt;/span&gt;&lt;/div&gt;&lt;div style=&quot;&quot;&gt;&lt;span style=&quot;font-weight: 400;&quot;&gt;simplesmente existir sozinha.&lt;/span&gt;&lt;/div&gt;&lt;span id=&quot;docs-internal-guid-d9924a26-7fff-dc47-6b06-bd6e0aea810e&quot; style=&quot;font-weight:normal;&quot;&gt;&lt;/span&gt;" style="text;align=left;fontStyle=1;verticalAlign=middle;spacingLeft=3;spacingRight=3;strokeColor=none;rotatable=0;points=[[0,0.5],[1,0.5]];portConstraint=eastwest;html=1;" vertex="1" parent="1">
          <mxGeometry x="40" y="100" width="640" height="90" as="geometry" />
        </mxCell>
        <mxCell id="gpJj0CxwgP7CzuSR-CXS-3" value="Nome da Classe" style="swimlane;fontStyle=1;align=center;verticalAlign=top;childLayout=stackLayout;horizontal=1;startSize=26;horizontalStack=0;resizeParent=1;resizeParentMax=0;resizeLast=0;collapsible=1;marginBottom=0;whiteSpace=wrap;html=1;" vertex="1" parent="1">
          <mxGeometry x="40" y="210" width="280" height="86" as="geometry" />
        </mxCell>
        <mxCell id="gpJj0CxwgP7CzuSR-CXS-4" value="+ nome do atributo: tipo do atributo" style="text;strokeColor=none;fillColor=none;align=left;verticalAlign=top;spacingLeft=4;spacingRight=4;overflow=hidden;rotatable=0;points=[[0,0.5],[1,0.5]];portConstraint=eastwest;whiteSpace=wrap;html=1;" vertex="1" parent="gpJj0CxwgP7CzuSR-CXS-3">
          <mxGeometry y="26" width="280" height="26" as="geometry" />
        </mxCell>
        <mxCell id="gpJj0CxwgP7CzuSR-CXS-5" value="" style="line;strokeWidth=1;fillColor=none;align=left;verticalAlign=middle;spacingTop=-1;spacingLeft=3;spacingRight=3;rotatable=0;labelPosition=right;points=[];portConstraint=eastwest;strokeColor=inherit;" vertex="1" parent="gpJj0CxwgP7CzuSR-CXS-3">
          <mxGeometry y="52" width="280" height="8" as="geometry" />
        </mxCell>
        <mxCell id="gpJj0CxwgP7CzuSR-CXS-6" value="+ nome do método(parâmetros): tipo de retorno" style="text;strokeColor=none;fillColor=none;align=left;verticalAlign=top;spacingLeft=4;spacingRight=4;overflow=hidden;rotatable=0;points=[[0,0.5],[1,0.5]];portConstraint=eastwest;whiteSpace=wrap;html=1;" vertex="1" parent="gpJj0CxwgP7CzuSR-CXS-3">
          <mxGeometry y="60" width="280" height="26" as="geometry" />
        </mxCell>
        <mxCell id="gpJj0CxwgP7CzuSR-CXS-7" value="Herança" style="text;align=center;fontStyle=1;verticalAlign=middle;spacingLeft=3;spacingRight=3;strokeColor=none;rotatable=0;points=[[0,0.5],[1,0.5]];portConstraint=eastwest;html=1;" vertex="1" parent="1">
          <mxGeometry x="120" y="330" width="80" height="26" as="geometry" />
        </mxCell>
        <mxCell id="gpJj0CxwgP7CzuSR-CXS-8" value="&lt;i&gt;Conta&lt;/i&gt;" style="swimlane;fontStyle=1;align=center;verticalAlign=top;childLayout=stackLayout;horizontal=1;startSize=26;horizontalStack=0;resizeParent=1;resizeParentMax=0;resizeLast=0;collapsible=1;marginBottom=0;whiteSpace=wrap;html=1;" vertex="1" parent="1">
          <mxGeometry x="40" y="390" width="240" height="216" as="geometry" />
        </mxCell>
        <mxCell id="gpJj0CxwgP7CzuSR-CXS-9" value="+ banco: string" style="text;strokeColor=none;fillColor=none;align=left;verticalAlign=top;spacingLeft=4;spacingRight=4;overflow=hidden;rotatable=0;points=[[0,0.5],[1,0.5]];portConstraint=eastwest;whiteSpace=wrap;html=1;" vertex="1" parent="gpJj0CxwgP7CzuSR-CXS-8">
          <mxGeometry y="26" width="240" height="26" as="geometry" />
        </mxCell>
        <mxCell id="gpJj0CxwgP7CzuSR-CXS-13" value="+ agencia: string" style="text;strokeColor=none;fillColor=none;align=left;verticalAlign=top;spacingLeft=4;spacingRight=4;overflow=hidden;rotatable=0;points=[[0,0.5],[1,0.5]];portConstraint=eastwest;whiteSpace=wrap;html=1;" vertex="1" parent="gpJj0CxwgP7CzuSR-CXS-8">
          <mxGeometry y="52" width="240" height="26" as="geometry" />
        </mxCell>
        <mxCell id="gpJj0CxwgP7CzuSR-CXS-14" value="+ conta: string" style="text;strokeColor=none;fillColor=none;align=left;verticalAlign=top;spacingLeft=4;spacingRight=4;overflow=hidden;rotatable=0;points=[[0,0.5],[1,0.5]];portConstraint=eastwest;whiteSpace=wrap;html=1;" vertex="1" parent="gpJj0CxwgP7CzuSR-CXS-8">
          <mxGeometry y="78" width="240" height="26" as="geometry" />
        </mxCell>
        <mxCell id="gpJj0CxwgP7CzuSR-CXS-12" value="# saldo: float" style="text;strokeColor=none;fillColor=none;align=left;verticalAlign=top;spacingLeft=4;spacingRight=4;overflow=hidden;rotatable=0;points=[[0,0.5],[1,0.5]];portConstraint=eastwest;whiteSpace=wrap;html=1;" vertex="1" parent="gpJj0CxwgP7CzuSR-CXS-8">
          <mxGeometry y="104" width="240" height="26" as="geometry" />
        </mxCell>
        <mxCell id="gpJj0CxwgP7CzuSR-CXS-10" value="" style="line;strokeWidth=1;fillColor=none;align=left;verticalAlign=middle;spacingTop=-1;spacingLeft=3;spacingRight=3;rotatable=0;labelPosition=right;points=[];portConstraint=eastwest;strokeColor=inherit;" vertex="1" parent="gpJj0CxwgP7CzuSR-CXS-8">
          <mxGeometry y="130" width="240" height="8" as="geometry" />
        </mxCell>
        <mxCell id="gpJj0CxwgP7CzuSR-CXS-11" value="+ depositar(float valor): bool" style="text;strokeColor=none;fillColor=none;align=left;verticalAlign=top;spacingLeft=4;spacingRight=4;overflow=hidden;rotatable=0;points=[[0,0.5],[1,0.5]];portConstraint=eastwest;whiteSpace=wrap;html=1;" vertex="1" parent="gpJj0CxwgP7CzuSR-CXS-8">
          <mxGeometry y="138" width="240" height="26" as="geometry" />
        </mxCell>
        <mxCell id="gpJj0CxwgP7CzuSR-CXS-15" value="+ sacar(float valor): bool" style="text;strokeColor=none;fillColor=none;align=left;verticalAlign=top;spacingLeft=4;spacingRight=4;overflow=hidden;rotatable=0;points=[[0,0.5],[1,0.5]];portConstraint=eastwest;whiteSpace=wrap;html=1;" vertex="1" parent="gpJj0CxwgP7CzuSR-CXS-8">
          <mxGeometry y="164" width="240" height="26" as="geometry" />
        </mxCell>
        <mxCell id="gpJj0CxwgP7CzuSR-CXS-16" value="+ transferir(float valor): bool" style="text;strokeColor=none;fillColor=none;align=left;verticalAlign=top;spacingLeft=4;spacingRight=4;overflow=hidden;rotatable=0;points=[[0,0.5],[1,0.5]];portConstraint=eastwest;whiteSpace=wrap;html=1;" vertex="1" parent="gpJj0CxwgP7CzuSR-CXS-8">
          <mxGeometry y="190" width="240" height="26" as="geometry" />
        </mxCell>
        <mxCell id="gpJj0CxwgP7CzuSR-CXS-17" value="Classe abstrata ou superclasse" style="text;align=center;fontStyle=0;verticalAlign=middle;spacingLeft=3;spacingRight=3;strokeColor=none;rotatable=0;points=[[0,0.5],[1,0.5]];portConstraint=eastwest;html=1;" vertex="1" parent="1">
          <mxGeometry x="40" y="364" width="170" height="26" as="geometry" />
        </mxCell>
      </root>
    </mxGraphModel>
  </diagram>
</mxfile>
